<svg xmlns="http://www.w3.org/2000/svg" viewBox="0 0 2500 2500"><path d="M365 453.9h165v1095h652.5v135H365v-1230zm1332 297c-168.8-2.3-337.5 105-390 267.7-75 187.5-40.5 423 106.5 566.3 142.5 118.5 357 127.5 517.5 43.5 110.2-58.5 180-174.8 195-297 19.5-127.5 9.7-267-52.5-382.5-73.5-123-217.5-202.5-360-197.3l-16.5-2.2zm15 130.5c123.7 0 234.7 94.5 255 216 37.5 137.2 15 305.2-97.5 402-105 85.5-273.8 73.5-360-32.3-105-112.5-105-285-51-420 37.5-97.5 137.2-167.2 242.2-165h13.5z"/><path d="M365 1858.6h1770v187.5H365v-187.5z" fill="#3492ff"/></svg>